<?xml version="1.0" encoding="UTF-8" standalone="no"?>
<!DOCTYPE svg PUBLIC "-//W3C//DTD SVG 1.1//EN"
 "http://www.w3.org/Graphics/SVG/1.1/DTD/svg11.dtd">
<!-- Generated by graphviz version 2.43.0 (0)
 -->
<!-- Title: %3 Pages: 1 -->
<svg width="412pt" height="119pt"
 viewBox="0.00 0.00 412.00 118.56" xmlns="http://www.w3.org/2000/svg" xmlns:xlink="http://www.w3.org/1999/xlink">
<g id="graph0" class="graph" transform="scale(1 1) rotate(0) translate(4 114.56)">
<title>%3</title>
<polygon fill="white" stroke="transparent" points="-4,4 -4,-114.56 408,-114.56 408,4 -4,4"/>
<!-- kolbeMosher6981 -->
<g id="node1" class="node">
<title>kolbeMosher6981</title>
<ellipse fill="none" stroke="white" cx="27" cy="-50.56" rx="27" ry="18"/>
</g>
<!-- a -->
<g id="node2" class="node">
<title>a</title>
<ellipse fill="none" stroke="black" cx="118" cy="-50.56" rx="27" ry="18"/>
<text text-anchor="middle" x="118" y="-46.86" font-family="Times,serif" font-size="14.00">a</text>
</g>
<!-- kolbeMosher6981&#45;&gt;a -->
<g id="edge1" class="edge">
<title>kolbeMosher6981&#45;&gt;a</title>
<path fill="none" stroke="black" d="M54.22,-50.56C62.55,-50.56 71.91,-50.56 80.82,-50.56"/>
<polygon fill="black" stroke="black" points="80.97,-54.06 90.97,-50.56 80.97,-47.06 80.97,-54.06"/>
</g>
<!-- a&#45;&gt;a -->
<g id="edge2" class="edge">
<title>a&#45;&gt;a</title>
<path fill="none" stroke="black" d="M110.14,-67.97C108.68,-77.65 111.3,-86.56 118,-86.56 122.19,-86.56 124.78,-83.08 125.78,-78.11"/>
<polygon fill="black" stroke="black" points="129.28,-78 125.86,-67.97 122.28,-77.95 129.28,-78"/>
<text text-anchor="middle" x="118" y="-90.36" font-family="Times,serif" font-size="14.00">0/0,R</text>
</g>
<!-- d -->
<g id="node3" class="node">
<title>d</title>
<ellipse fill="none" stroke="black" cx="249" cy="-88.56" rx="18" ry="18"/>
<ellipse fill="none" stroke="black" cx="249" cy="-88.56" rx="22" ry="22"/>
<text text-anchor="middle" x="249" y="-84.86" font-family="Times,serif" font-size="14.00">d</text>
</g>
<!-- a&#45;&gt;d -->
<g id="edge8" class="edge">
<title>a&#45;&gt;d</title>
<path fill="none" stroke="black" d="M142.96,-57.62C164.07,-63.84 194.91,-72.92 217.71,-79.64"/>
<polygon fill="black" stroke="black" points="216.98,-83.08 227.57,-82.54 218.96,-76.36 216.98,-83.08"/>
<text text-anchor="middle" x="183.5" y="-78.36" font-family="Times,serif" font-size="14.00">B/B,R</text>
</g>
<!-- b -->
<g id="node4" class="node">
<title>b</title>
<ellipse fill="none" stroke="black" cx="249" cy="-21.56" rx="27" ry="18"/>
<text text-anchor="middle" x="249" y="-17.86" font-family="Times,serif" font-size="14.00">b</text>
</g>
<!-- a&#45;&gt;b -->
<g id="edge3" class="edge">
<title>a&#45;&gt;b</title>
<path fill="none" stroke="black" d="M143.87,-44.97C163.59,-40.54 191.38,-34.29 213.29,-29.37"/>
<polygon fill="black" stroke="black" points="214.22,-32.75 223.2,-27.14 212.68,-25.92 214.22,-32.75"/>
<text text-anchor="middle" x="183.5" y="-43.36" font-family="Times,serif" font-size="14.00">1/1,R</text>
</g>
<!-- b&#45;&gt;a -->
<g id="edge7" class="edge">
<title>b&#45;&gt;a</title>
<path fill="none" stroke="black" d="M224.56,-13.53C207.08,-8.84 182.89,-5.16 163,-12.56 154.3,-15.8 146.17,-21.62 139.32,-27.75"/>
<polygon fill="black" stroke="black" points="136.65,-25.46 131.92,-34.94 141.53,-30.48 136.65,-25.46"/>
<text text-anchor="middle" x="183.5" y="-16.36" font-family="Times,serif" font-size="14.00">1/1,R</text>
</g>
<!-- c -->
<g id="node5" class="node">
<title>c</title>
<ellipse fill="none" stroke="black" cx="377" cy="-21.56" rx="27" ry="18"/>
<text text-anchor="middle" x="377" y="-17.86" font-family="Times,serif" font-size="14.00">c</text>
</g>
<!-- b&#45;&gt;c -->
<g id="edge4" class="edge">
<title>b&#45;&gt;c</title>
<path fill="none" stroke="black" d="M276.11,-21.56C294.52,-21.56 319.43,-21.56 339.77,-21.56"/>
<polygon fill="black" stroke="black" points="339.93,-25.06 349.93,-21.56 339.93,-18.06 339.93,-25.06"/>
<text text-anchor="middle" x="313" y="-25.36" font-family="Times,serif" font-size="14.00">0/0,R</text>
</g>
<!-- c&#45;&gt;b -->
<g id="edge6" class="edge">
<title>c&#45;&gt;b</title>
<path fill="none" stroke="black" d="M355.09,-10.47C347.97,-7.26 339.82,-4.18 332,-2.56 315.46,0.85 310.54,0.85 294,-2.56 289.48,-3.5 284.85,-4.92 280.37,-6.58"/>
<polygon fill="black" stroke="black" points="278.83,-3.43 270.91,-10.47 281.49,-9.9 278.83,-3.43"/>
<text text-anchor="middle" x="313" y="-6.36" font-family="Times,serif" font-size="14.00">0/0,R</text>
</g>
<!-- c&#45;&gt;c -->
<g id="edge5" class="edge">
<title>c&#45;&gt;c</title>
<path fill="none" stroke="black" d="M365.75,-38.23C363.25,-48.19 367,-57.56 377,-57.56 383.41,-57.56 387.25,-53.72 388.52,-48.33"/>
<polygon fill="black" stroke="black" points="392.02,-48.13 388.25,-38.23 385.02,-48.32 392.02,-48.13"/>
<text text-anchor="middle" x="377" y="-61.36" font-family="Times,serif" font-size="14.00">1/1,R</text>
</g>
</g>
</svg>
